<svg width="37" height="34" viewBox="0 0 37 34" fill="none" xmlns="http://www.w3.org/2000/svg">
<g clip-path="url(#clip0_240_69)">
<path d="M31 0H27C25.9 0 25 0.9 25 2C25 3.1 24.1 4 23 4C21.9 4 21 3.1 21 2C21 0.9 20.1 0 19 0H14C12.9 0 12 0.9 12 2C12 3.1 11.1 4 10 4C8.9 4 8 3.1 8 2C8 0.9 7.1 0 6 0H2C0.9 0 0 0.9 0 2V27C0 28.1 0.9 29 2 29H17.16C16.63 27.66 16.32 26.21 16.32 24.68C16.32 18.23 21.55 13 28 13C29.79 13 31.48 13.42 33 14.14V2C33 0.9 32.1 0 31 0ZM6 24.18C4.9 24.18 4 23.28 4 22.18C4 21.08 4.9 20.18 6 20.18C7.1 20.18 8 21.08 8 22.18C8 23.28 7.1 24.18 6 24.18ZM6 18.18C4.9 18.18 4 17.28 4 16.18C4 15.08 4.9 14.18 6 14.18C7.1 14.18 8 15.08 8 16.18C8 17.28 7.1 18.18 6 18.18ZM12 24.18C10.9 24.18 10 23.28 10 22.18C10 21.08 10.9 20.18 12 20.18C13.1 20.18 14 21.08 14 22.18C14 23.28 13.1 24.18 12 24.18ZM12 18.18C10.9 18.18 10 17.28 10 16.18C10 15.08 10.9 14.18 12 14.18C13.1 14.18 14 15.08 14 16.18C14 17.28 13.1 18.18 12 18.18ZM12 12.18C10.9 12.18 10 11.28 10 10.18C10 9.08 10.9 8.18 12 8.18C13.1 8.18 14 9.08 14 10.18C14 11.28 13.1 12.18 12 12.18ZM18 12.18C16.9 12.18 16 11.28 16 10.18C16 9.08 16.9 8.18 18 8.18C19.1 8.18 20 9.08 20 10.18C20 11.28 19.1 12.18 18 12.18Z" fill="#93C1B4"/>
<path d="M28 15.6801C23.03 15.6801 19 19.7101 19 24.6801C19 29.6501 23.03 33.6801 28 33.6801C32.97 33.6801 37 29.6501 37 24.6801C37 19.7101 32.97 15.6801 28 15.6801ZM29.25 25.1801C29.25 25.8701 28.69 26.4301 28 26.4301H23C22.31 26.4301 21.75 25.8701 21.75 25.1801C21.75 24.4901 22.31 23.9301 23 23.9301H26.75V19.1801C26.75 18.4901 27.31 17.9301 28 17.9301C28.69 17.9301 29.25 18.4901 29.25 19.1801V25.1801Z" fill="#93C1B4"/>
</g>
<defs>
<clipPath id="clip0_240_69">
<rect width="37" height="33.68" fill="white"/>
</clipPath>
</defs>
</svg>
