<svg width="37" height="42" viewBox="0 0 37 42" fill="none" xmlns="http://www.w3.org/2000/svg">
<g clip-path="url(#clip0_240_82)">
<path d="M34.0626 12.0435C33.8981 12.0435 33.7453 12.067 33.5808 12.0905C31.9241 5.15814 25.7907 0 18.4824 0C11.174 0 5.04065 5.15814 3.37218 12.0905C3.23118 12.067 3.07844 12.0435 2.93744 12.0435C1.31597 12.0435 0 13.3595 0 14.9809V18.5059C0 20.1273 1.31597 21.4433 2.93744 21.4433C3.28993 21.4433 3.63068 21.3728 3.94792 21.2553C4.8174 23.429 6.92061 24.9682 9.39981 24.9682C10.046 24.9682 10.5748 24.4395 10.5748 23.7933C10.5748 23.147 10.046 22.6183 9.39981 22.6183C7.4611 22.6183 5.87488 21.0321 5.87488 19.0934V15.3687C6.13338 8.47158 11.6793 2.93744 18.4824 2.93744C25.2855 2.93744 31.1134 8.73007 31.1134 15.8504C31.1134 15.8739 31.1251 15.9092 31.1251 15.9327V18.5059C31.1251 20.1273 32.4411 21.4433 34.0626 21.4433C35.684 21.4433 37 20.1273 37 18.5059V14.9809C37 13.3595 35.684 12.0435 34.0626 12.0435V12.0435Z" fill="#93C1B4"/>
<path d="M28.129 28.4815H24.6863C23.9225 28.4815 23.1941 28.8575 22.7593 29.4802L20.3506 32.9346C19.4106 34.2859 17.4014 34.2741 16.4849 32.9111L14.182 29.5154C13.7472 28.8692 13.0188 28.4815 12.2433 28.4815H8.85934C4.50018 28.4815 0.963501 32.0181 0.963501 36.3773V39.8787C0.963501 40.525 1.49224 41.0537 2.13848 41.0537H34.8498C35.4961 41.0537 36.0248 40.525 36.0248 39.8787V36.3773C36.0248 32.0181 32.4881 28.4815 28.129 28.4815ZM18.4824 25.544C23.8285 25.544 28.1642 21.2084 28.1642 15.8622C28.1642 10.5161 23.8285 6.18042 18.4824 6.18042C13.1363 6.18042 8.80059 10.5043 8.80059 15.8505C8.80059 21.1966 13.1363 25.5323 18.4824 25.5323V25.544Z" fill="#93C1B4"/>
</g>
<defs>
<clipPath id="clip0_240_82">
<rect width="37" height="41.0537" fill="white"/>
</clipPath>
</defs>
</svg>
