<svg width="37" height="35" viewBox="0 0 37 35" fill="none" xmlns="http://www.w3.org/2000/svg">
<g clip-path="url(#clip0_240_64)">
<path d="M22.1681 0.12508C20.2832 -0.393306 18.3363 0.732843 17.823 2.63657C17.3097 4.5403 18.4248 6.50659 20.3097 7.02498C22.1947 7.54336 24.1416 6.41721 24.6549 4.51349C25.1681 2.60976 24.0531 0.643466 22.1681 0.12508V0.12508Z" fill="#93C1B4"/>
<path d="M5.2124 17.7056C5.60178 16.2756 4.76107 14.8009 3.34514 14.4165C1.92921 14.0233 0.469036 14.8724 0.0885049 16.3024C-0.300876 17.7324 0.539832 19.2071 1.95576 19.5915C3.37169 19.9847 4.83187 19.1356 5.2124 17.7056ZM14.9292 33.6951C18.3982 35.4648 22.6549 35.5006 26.2743 33.4002C29.8938 31.3088 32.0177 27.5996 32.2743 23.6849C29.9381 25.5708 27.1062 27.5013 23.9912 29.2978C20.8496 31.1121 17.7434 32.6047 14.9204 33.6862L14.9292 33.6951ZM36.6637 12.3787C35.3451 10.0907 31.0266 10.8057 26.4248 12.486C22.8407 10.3588 18.2655 10.1622 14.3982 12.3966C10.5841 14.5953 8.44249 18.5994 8.38054 22.7375C5.52213 25.0613 3.35399 27.4119 2.84957 29.2889C2.57523 30.3167 2.81417 31.0585 3.06196 31.4875C3.65488 32.5154 4.85842 32.9354 6.41594 32.9354C10.8319 32.9354 18.1239 29.557 22.7345 26.9472C29.0885 23.3453 35.9292 18.1167 36.885 14.5774C37.1593 13.5496 36.9204 12.8078 36.6726 12.3787H36.6637ZM5.36284 30.1379C5.36284 29.4855 6.48673 27.9303 8.74337 25.9193C9.00886 26.9382 9.38939 27.9482 9.93806 28.9135C10.062 29.128 10.1947 29.3335 10.3274 29.5391C7.65488 30.3346 5.88496 30.4686 5.36284 30.1379V30.1379ZM16.8407 16.7314C14.7876 17.9201 13.469 20.0473 13.3097 22.4336C13.2743 23.0235 12.7876 23.4794 12.2035 23.4794C12.177 23.4794 12.1505 23.4794 12.1239 23.4794C11.5133 23.4347 11.0531 22.9073 11.0974 22.2906C11.3097 19.1535 13.0443 16.356 15.7345 14.8009C16.2655 14.497 16.9381 14.6847 17.2478 15.212C17.5487 15.7483 17.3628 16.4275 16.8407 16.7403V16.7314ZM31.1682 17.7682C31.0354 17.4732 30.8938 17.1783 30.7345 16.8923C30.2212 15.9896 29.6018 15.1852 28.9115 14.4702C31.8496 13.5496 33.7876 13.3798 34.3451 13.7283C34.3451 14.3629 33.292 15.8376 31.1682 17.7592V17.7682Z" fill="#93C1B4"/>
</g>
<defs>
<clipPath id="clip0_240_64">
<rect width="37" height="35" fill="white"/>
</clipPath>
</defs>
</svg>
