<svg width="37" height="32" viewBox="0 0 37 32" fill="none" xmlns="http://www.w3.org/2000/svg">
<g clip-path="url(#clip0_240_76)">
<path d="M6.34608 22.6323C8.28203 22.6323 9.85336 21.061 9.85336 19.1337C9.85336 17.2065 8.28203 15.6351 6.34608 15.6351C4.41014 15.6351 2.84749 17.2065 2.84749 19.1337C2.84749 21.061 4.41882 22.6323 6.34608 22.6323ZM27.1553 19.1337C27.1553 21.0697 28.7267 22.6323 30.6539 22.6323C32.5812 22.6323 34.1612 21.061 34.1612 19.1337C34.1612 17.2065 32.5899 15.6351 30.6539 15.6351C28.718 15.6351 27.1553 17.2065 27.1553 19.1337V19.1337ZM25.558 20.3144C25.3496 19.4376 25.3583 18.4826 25.6882 17.4843C26.1309 16.1387 27.1553 15.0361 28.4315 14.4198C29.534 13.8902 30.5845 13.8034 31.5481 13.9683C31.8085 14.0117 32.0343 13.8034 32.0343 13.5429V1.73627C32.0343 0.781323 31.2529 0 30.298 0H6.8496C5.89465 0 5.11333 0.781323 5.11333 1.73627V13.5256C5.11333 13.786 5.33904 13.9944 5.59948 13.951C6.71938 13.786 7.95214 13.9596 9.2717 14.8451C10.2006 15.4702 10.9385 16.3731 11.2945 17.4322C11.6417 18.4479 11.6591 19.4289 11.442 20.3144C11.3813 20.5835 11.5896 20.8353 11.8674 20.8353H12.8745C13.1957 20.8353 13.3606 20.6964 13.4127 20.4967C13.9683 18.2048 16.0345 16.5033 18.5 16.5033C20.9655 16.5033 23.023 18.2135 23.5873 20.4967C23.6394 20.6964 23.8043 20.8353 24.004 20.8353H25.1326C25.4104 20.8353 25.6187 20.5835 25.558 20.3144V20.3144ZM18.0659 11.9369H11.989C11.39 11.9369 10.9038 11.4507 10.9038 10.8517C10.9038 10.2527 11.39 9.76654 11.989 9.76654H18.0659C18.6649 9.76654 19.1511 10.2527 19.1511 10.8517C19.1511 11.4507 18.6649 11.9369 18.0659 11.9369ZM11.989 7.5962C11.39 7.5962 10.9038 7.11004 10.9038 6.51103C10.9038 5.91201 11.39 5.42586 11.989 5.42586H25.8792C26.4782 5.42586 26.9643 5.91201 26.9643 6.51103C26.9643 7.11004 26.4782 7.5962 25.8792 7.5962H11.989V7.5962ZM9.83599 24.4033H2.85617C1.27616 24.4033 0 25.6795 0 27.2595V28.0842C0 28.5617 0.390662 28.9524 0.868137 28.9524H10.1746C10.3742 28.9524 10.5392 28.8135 10.5913 28.6225C10.8517 27.6936 11.3986 26.8949 12.1279 26.3046C12.3102 26.157 12.3536 25.9052 12.2234 25.7055C11.7112 24.9242 10.8344 24.3947 9.82731 24.3947L9.83599 24.4033ZM34.1438 24.4033H27.164C26.157 24.4033 25.2802 24.9242 24.768 25.7142C24.6377 25.9139 24.6811 26.1657 24.8634 26.3132C25.5927 26.9036 26.1396 27.7023 26.4 28.6312C26.4521 28.8222 26.6171 28.9611 26.8168 28.9611H36.1232C36.6007 28.9611 36.9913 28.5704 36.9913 28.0929V27.2682C36.9913 25.6882 35.7152 24.412 34.1351 24.412L34.1438 24.4033Z" fill="#93C1B4"/>
<path d="M18.5 25.2367C20.436 25.2367 22.0073 23.6654 22.0073 21.7381C22.0073 19.8108 20.436 18.2395 18.5 18.2395C16.5641 18.2395 15.0014 19.8108 15.0014 21.7381C15.0014 23.6654 16.5727 25.2367 18.5 25.2367ZM21.9899 26.999H15.0101C13.4301 26.999 12.1539 28.2752 12.1539 29.8552V30.6799C12.1539 31.1574 12.5446 31.548 13.0221 31.548H23.978C24.4554 31.548 24.8461 31.1574 24.8461 30.6799V29.8552C24.8461 28.2752 23.5699 26.999 21.9899 26.999Z" fill="#93C1B4"/>
</g>
<defs>
<clipPath id="clip0_240_76">
<rect width="37" height="31.5568" fill="white"/>
</clipPath>
</defs>
</svg>
